<mxfile host="app.diagrams.net" modified="2024-04-13T13:26:03.030Z" agent="Mozilla/5.0 (Windows NT 10.0; Win64; x64) AppleWebKit/537.36 (KHTML, like Gecko) Chrome/123.0.0.0 Safari/537.36" version="24.2.5" etag="qChVuhnY56ZzNS3lU_J1" type="github">
  <diagram name="第 1 页" id="nvI-t_gvTabszYTL7LgO">
    <mxGraphModel>
      <root>
        <mxCell id="0" />
        <mxCell id="1" parent="0" />
      </root>
    </mxGraphModel>
  </diagram>
</mxfile>
